<?xml version="1.0" standalone="no"?>
<!DOCTYPE svg PUBLIC "-//W3C//DTD SVG 20010904//EN"
 "http://www.w3.org/TR/2001/REC-SVG-20010904/DTD/svg10.dtd">
<svg version="1.0" xmlns="http://www.w3.org/2000/svg"
 width="260.000000pt" height="260.000000pt" viewBox="0 0 260.000000 260.000000"
 preserveAspectRatio="xMidYMid meet">
<metadata>
Created by potrace 1.14, written by Peter Selinger 2001-2017
</metadata>
<g transform="translate(0.000000,260.000000) scale(0.100000,-0.100000)"
fill="#000000" stroke="none">
<path d="M752 2447 c-15 -18 -13 -1995 2 -2005 6 -4 121 -8 256 -8 135 -1 255
-2 267 -3 22 -1 23 -3 25 -178 l3 -178 320 0 320 0 3 499 c1 360 -1 503 -9
512 -9 11 -48 14 -165 14 l-154 0 -1 278 c0 152 0 454 0 669 0 360 -1 394 -17
402 -27 14 -838 13 -850 -2z m613 -87 c3 -5 1 -10 -4 -10 -6 0 -11 5 -11 10 0
6 2 10 4 10 3 0 8 -4 11 -10z m5 -76 c0 -8 -19 -13 -24 -6 -3 5 1 9 9 9 8 0
15 -2 15 -3z m74 -2 c3 -5 -1 -9 -9 -9 -8 0 -12 4 -9 9 3 4 7 8 9 8 2 0 6 -4
9 -8z m7 -79 c13 -16 12 -17 -3 -4 -10 7 -18 15 -18 17 0 8 8 3 21 -13z m74
-811 c-3 -3 -11 0 -18 7 -9 10 -8 11 6 5 10 -3 15 -9 12 -12z m318 -339 c-40
-2 -107 -2 -150 0 -43 1 -10 3 72 3 83 0 118 -2 78 -3z m-918 -13 c3 -5 1 -10
-4 -10 -6 0 -11 5 -11 10 0 6 2 10 4 10 3 0 8 -4 11 -10z m985 -470 l0 -470
-285 0 -285 0 2 168 2 167 3 -162 3 -163 275 0 275 0 0 423 c-1 537 -1 507 5
507 3 0 5 -211 5 -470z"/>
</g>
</svg>
